<svg width="21" height="22" viewBox="0 0 21 22" fill="none" xmlns="http://www.w3.org/2000/svg">
<path d="M10.4391 5.77441C7.59956 5.77441 5.24683 8.08658 5.24683 10.9667C5.24683 13.8467 7.559 16.1589 10.4391 16.1589C13.3191 16.1589 15.6313 13.8062 15.6313 10.9667C15.6313 8.12715 13.2786 5.77441 10.4391 5.77441ZM10.4391 14.2929C8.61367 14.2929 7.11279 12.7921 7.11279 10.9667C7.11279 9.14126 8.61367 7.64037 10.4391 7.64037C12.2645 7.64037 13.7653 9.14126 13.7653 10.9667C13.7653 12.7921 12.2645 14.2929 10.4391 14.2929Z" fill="black"/>
<path d="M15.8342 6.8293C16.4839 6.8293 17.0106 6.30262 17.0106 5.65293C17.0106 5.00324 16.4839 4.47656 15.8342 4.47656C15.1845 4.47656 14.6578 5.00324 14.6578 5.65293C14.6578 6.30262 15.1845 6.8293 15.8342 6.8293Z" fill="black"/>
<path d="M18.8765 2.6104C17.8218 1.51517 16.3209 0.947266 14.6172 0.947266H6.26098C2.73188 0.947266 0.37915 3.3 0.37915 6.8291V15.1448C0.37915 16.8891 0.947052 18.3899 2.08285 19.4852C3.17809 20.5399 4.63841 21.0672 6.30155 21.0672H14.5767C16.3209 21.0672 17.7813 20.4993 18.8359 19.4852C19.9312 18.4305 20.4991 16.9296 20.4991 15.1854V6.8291C20.4991 5.1254 19.9312 3.66508 18.8765 2.6104ZM18.7142 15.1854C18.7142 16.4429 18.268 17.457 17.5379 18.1466C16.8077 18.8362 15.7936 19.2012 14.5767 19.2012H6.30155C5.08462 19.2012 4.07051 18.8362 3.34035 18.1466C2.61019 17.4164 2.24511 16.4023 2.24511 15.1448V6.8291C2.24511 5.61217 2.61019 4.59806 3.34035 3.8679C4.02994 3.17831 5.08462 2.81323 6.30155 2.81323H14.6578C15.8747 2.81323 16.8889 3.17831 17.619 3.90846C18.3086 4.63862 18.7142 5.65273 18.7142 6.8291V15.1854Z" fill="black"/>
</svg>
