<svg width="22" height="16" viewBox="0 0 22 16" fill="none" xmlns="http://www.w3.org/2000/svg">
<path d="M15.7143 8.00021C15.7143 7.69738 15.5915 7.4764 15.346 7.33726L9.06027 3.40869C8.80655 3.245 8.54055 3.23682 8.26228 3.38414C7.99219 3.53146 7.85714 3.76063 7.85714 4.07164V11.9288C7.85714 12.2398 7.99219 12.469 8.26228 12.6163C8.39323 12.6818 8.52009 12.7145 8.64286 12.7145C8.80655 12.7145 8.94568 12.6736 9.06027 12.5917L15.346 8.66316C15.5915 8.52402 15.7143 8.30304 15.7143 8.00021ZM22 8.00021C22 8.78592 21.9959 9.39976 21.9877 9.84173C21.9795 10.2837 21.9448 10.8423 21.8834 11.5175C21.822 12.1927 21.7299 12.7963 21.6071 13.3283C21.4762 13.9258 21.1938 14.4292 20.76 14.8384C20.3263 15.2476 19.8188 15.485 19.2377 15.5504C17.4208 15.755 14.6749 15.8574 11 15.8574C7.32515 15.8574 4.57924 15.755 2.76228 15.5504C2.18118 15.485 1.67169 15.2476 1.23382 14.8384C0.795945 14.4292 0.511533 13.9258 0.38058 13.3283C0.265997 12.7963 0.178013 12.1927 0.116629 11.5175C0.0552455 10.8423 0.0204613 10.2837 0.0122768 9.84173C0.00409226 9.39976 0 8.78592 0 8.00021C0 7.21449 0.00409226 6.60066 0.0122768 6.15869C0.0204613 5.71673 0.0552455 5.15813 0.116629 4.48291C0.178013 3.80769 0.270089 3.20408 0.392857 2.67208C0.523809 2.07461 0.806176 1.57127 1.23996 1.16204C1.67374 0.752813 2.18118 0.515462 2.76228 0.449986C4.57924 0.245373 7.32515 0.143066 11 0.143066C14.6749 0.143066 17.4208 0.245373 19.2377 0.449986C19.8188 0.515462 20.3283 0.752813 20.7662 1.16204C21.2041 1.57127 21.4885 2.07461 21.6194 2.67208C21.734 3.20408 21.822 3.80769 21.8834 4.48291C21.9448 5.15813 21.9795 5.71673 21.9877 6.15869C21.9959 6.60066 22 7.21449 22 8.00021Z" fill="black"/>
</svg>
